<svg xmlns="http://www.w3.org/2000/svg" viewBox="0 0 168.65 35.5"><defs><style>.a,.c{fill:#231f20;}.a,.b{fill-rule:evenodd;}.b{fill:#089bd7;}</style></defs><path class="a" d="M163.34,16.65h-6.68a1.11,1.11,0,0,0-.79.24,1.07,1.07,0,0,0-.24.79V36.92h-5.88V16.65a5.3,5.3,0,0,1,1.2-3.86,5.28,5.28,0,0,1,3.87-1.21h10.36A5.28,5.28,0,0,1,169,12.79a5.27,5.27,0,0,1,1.22,3.86V36.92h-5.91V17.67a1.52,1.52,0,0,0-.1-0.59,0.64,0.64,0,0,0-.32-0.33,1.38,1.38,0,0,0-.59-0.11" transform="translate(-1.59 -1.42)"/><path class="a" d="M124.12,31.85V16.65a5.3,5.3,0,0,1,1.2-3.86,5.29,5.29,0,0,1,3.87-1.21H140a5.34,5.34,0,0,1,3.88,1.21,5.3,5.3,0,0,1,1.21,3.86V31.85a5.3,5.3,0,0,1-1.21,3.86A5.34,5.34,0,0,1,140,36.92H129.19a5.29,5.29,0,0,1-3.87-1.21,5.3,5.3,0,0,1-1.2-3.86m14.11-15.21H131a1.11,1.11,0,0,0-.79.24,1.07,1.07,0,0,0-.24.79V30.83a1.07,1.07,0,0,0,.24.79,1.11,1.11,0,0,0,.79.24h7.21a1.28,1.28,0,0,0,.58-0.11,0.75,0.75,0,0,0,.32-0.33,1.37,1.37,0,0,0,.11-0.59V17.67a1.38,1.38,0,0,0-.11-0.59,0.75,0.75,0,0,0-.32-0.33,1.3,1.3,0,0,0-.58-0.11" transform="translate(-1.59 -1.42)"/><path class="a" d="M120.82,36.92H104.75q-4,0-4-2.86a5.19,5.19,0,0,1,.12-1.11,7.65,7.65,0,0,1,.24-0.92,4.1,4.1,0,0,1,.47-0.87c0.22-.33.38-0.57,0.5-0.71l0.61-.74,0.58-.69,10-12.16V16.65h-11.9V11.58H116.6q4.07,0,4.07,2.85a5.66,5.66,0,0,1-.14,1.28,4.42,4.42,0,0,1-.5,1.18c-0.24.4-.44,0.71-0.61,0.94s-0.42.57-.77,1L108,31.64v0.21h12.83v5.07Z" transform="translate(-1.59 -1.42)"/><path class="b" d="M92.25,6.25a2.71,2.71,0,0,1-.83-2,2.83,2.83,0,1,1,5.66,0,2.8,2.8,0,0,1-2.83,2.83,2.73,2.73,0,0,1-2-.82" transform="translate(-1.59 -1.42)"/><rect class="c" x="89.74" y="10.16" width="5.9" height="25.34"/><path class="b" d="M71.41,1.44V11.58h10a5.29,5.29,0,0,1,3.85,1.21,5.27,5.27,0,0,1,1.22,3.86V31.85a5.27,5.27,0,0,1-1.22,3.86,5.29,5.29,0,0,1-3.85,1.21H70.58a6.69,6.69,0,0,1-2.88-.54A3.37,3.37,0,0,1,66,34.74a6.65,6.65,0,0,1-.54-2.89V1.44h5.9Zm1,30.41h7.21a0.87,0.87,0,0,0,1-1V17.67a1.11,1.11,0,0,0-.23-0.79,1.11,1.11,0,0,0-.79-0.24H71.41V30.83a1.11,1.11,0,0,0,.23.79,1.07,1.07,0,0,0,.76.24" transform="translate(-1.59 -1.42)"/><path class="a" d="M39.69,31.85V16.65a5.3,5.3,0,0,1,1.2-3.86,5.28,5.28,0,0,1,3.87-1.21H55.59a5.34,5.34,0,0,1,3.88,1.21,5.3,5.3,0,0,1,1.21,3.86V31.85a5.3,5.3,0,0,1-1.21,3.86,5.34,5.34,0,0,1-3.88,1.21H44.76a5.28,5.28,0,0,1-3.87-1.21,5.3,5.3,0,0,1-1.2-3.86M53.8,16.65h-7.2a1.11,1.11,0,0,0-.79.24,1.07,1.07,0,0,0-.24.79V30.83a1.07,1.07,0,0,0,.24.79,1.11,1.11,0,0,0,.79.24h7.2a1.28,1.28,0,0,0,.58-0.11,0.75,0.75,0,0,0,.32-0.33,1.38,1.38,0,0,0,.11-0.59V17.67a1.39,1.39,0,0,0-.11-0.59,0.76,0.76,0,0,0-.32-0.33,1.29,1.29,0,0,0-.58-0.11" transform="translate(-1.59 -1.42)"/><path class="a" d="M28.16,16.65H22.27a1.08,1.08,0,0,0-.76.24,1.11,1.11,0,0,0-.23.79V36.92H15.37V17.67a1.07,1.07,0,0,0-.24-0.79,1.1,1.1,0,0,0-.79-0.24H8.5a1.11,1.11,0,0,0-.79.24,1.08,1.08,0,0,0-.24.79V36.92H1.59V16.65a5.3,5.3,0,0,1,1.2-3.86,5.28,5.28,0,0,1,3.87-1.21h7.5c2.18,0,3.56.8,4.17,2.38,0.54-1.58,1.93-2.38,4.16-2.38H30a5.31,5.31,0,0,1,3.86,1.21,5.31,5.31,0,0,1,1.21,3.86V36.92h-5.9V17.67a1.53,1.53,0,0,0-.1-0.59,0.66,0.66,0,0,0-.32-0.33,1.31,1.31,0,0,0-.58-0.11" transform="translate(-1.59 -1.42)"/></svg>
