<?xml version="1.0" encoding="utf-8"?>
<!-- Generator: Adobe Illustrator 22.0.1, SVG Export Plug-In . SVG Version: 6.00 Build 0)  -->
<svg version="1.1" id="Слой_1" xmlns="http://www.w3.org/2000/svg" xmlns:xlink="http://www.w3.org/1999/xlink" x="0px" y="0px"
	 viewBox="0 0 168.6 35.5" style="enable-background:new 0 0 168.6 35.5;" xml:space="preserve">
<style type="text/css">
	.st0{fill:#FFFFFF;}
</style>
<path class="st0" d="M161.8,15.2h-6.7c-0.3,0-0.6,0.1-0.8,0.2c-0.2,0.2-0.3,0.5-0.2,0.8v19.2h-5.9V15.2c-0.1-1.4,0.3-2.8,1.2-3.9
	c1.1-0.9,2.5-1.3,3.9-1.2h10.4c1.4-0.1,2.8,0.3,3.8,1.2c0.9,1.1,1.3,2.5,1.2,3.9v20.3h-5.9V16.2c0-0.2,0-0.4-0.1-0.6
	c-0.1-0.1-0.2-0.3-0.3-0.3C162.1,15.3,161.9,15.2,161.8,15.2"/>
<path class="st0" d="M122.5,30.4V15.2c-0.1-1.4,0.3-2.8,1.2-3.9c1.1-0.9,2.5-1.3,3.9-1.2h10.8c1.4-0.1,2.8,0.3,3.9,1.2
	c0.9,1.1,1.3,2.5,1.2,3.9v15.2c0.1,1.4-0.3,2.8-1.2,3.9c-1.1,0.9-2.5,1.3-3.9,1.2h-10.8c-1.4,0.1-2.8-0.3-3.9-1.2
	C122.8,33.2,122.4,31.8,122.5,30.4 M136.6,15.2h-7.2c-0.3,0-0.6,0.1-0.8,0.2c-0.2,0.2-0.3,0.5-0.2,0.8v13.2c0,0.3,0.1,0.6,0.2,0.8
	c0.2,0.2,0.5,0.3,0.8,0.2h7.2c0.2,0,0.4,0,0.6-0.1c0.1-0.1,0.3-0.2,0.3-0.3c0.1-0.2,0.1-0.4,0.1-0.6V16.2c0-0.2,0-0.4-0.1-0.6
	c-0.1-0.1-0.2-0.3-0.3-0.3C137,15.2,136.8,15.2,136.6,15.2"/>
<path class="st0" d="M119.2,35.5h-16.1c-2.7,0-4-1-4-2.9c0-0.4,0-0.7,0.1-1.1c0.1-0.3,0.1-0.6,0.2-0.9c0.1-0.3,0.3-0.6,0.5-0.9
	c0.2-0.3,0.4-0.6,0.5-0.7l0.6-0.7l0.6-0.7l10-12.2v-0.2H99.8v-5.1H115c2.7,0,4.1,0.9,4.1,2.9c0,0.4,0,0.9-0.1,1.3
	c-0.1,0.4-0.3,0.8-0.5,1.2c-0.2,0.4-0.4,0.7-0.6,0.9s-0.4,0.6-0.8,1l-10.7,12.8v0.2h12.8L119.2,35.5L119.2,35.5z"/>
<path class="st0" d="M90.7,4.8c-0.5-0.5-0.8-1.2-0.8-2c0-1.6,1.3-2.8,2.8-2.8s2.8,1.3,2.8,2.8c0,1.5-1.2,2.8-2.8,2.8c0,0,0,0-0.1,0
	C91.9,5.7,91.2,5.4,90.7,4.8"/>
<rect x="89.7" y="10.2" class="st0" width="5.9" height="25.3"/>
<path class="st0" d="M69.8,0v10.1h10c1.4-0.1,2.8,0.3,3.8,1.2c0.9,1.1,1.3,2.5,1.2,3.9v15.2c0.1,1.4-0.3,2.8-1.2,3.9
	c-1.1,0.9-2.5,1.3-3.8,1.2H69c-1,0-2-0.1-2.9-0.5c-0.7-0.3-1.3-0.9-1.7-1.6c-0.4-0.9-0.6-1.9-0.5-2.9V0H69.8L69.8,0z M70.8,30.4H78
	c0.5,0.1,0.9-0.2,1-0.7c0-0.1,0-0.2,0-0.3V16.2c0-0.3-0.1-0.6-0.2-0.8c-0.2-0.2-0.5-0.3-0.8-0.2h-8.2v14.2c0,0.3,0.1,0.6,0.2,0.8
	C70.3,30.4,70.5,30.5,70.8,30.4"/>
<path class="st0" d="M38.1,30.4V15.2c-0.1-1.4,0.3-2.8,1.2-3.9c1.1-0.9,2.5-1.3,3.9-1.2H54c1.4-0.1,2.8,0.3,3.9,1.2
	c0.9,1.1,1.3,2.5,1.2,3.9v15.2c0.1,1.4-0.3,2.8-1.2,3.9c-1.1,0.9-2.5,1.3-3.9,1.2H43.2c-1.4,0.1-2.8-0.3-3.9-1.2
	C38.4,33.2,38,31.8,38.1,30.4 M52.2,15.2H45c-0.3,0-0.6,0.1-0.8,0.2C44,15.7,44,16,44,16.3v13.1c0,0.3,0.1,0.6,0.2,0.8
	c0.2,0.2,0.5,0.3,0.8,0.2h7.2c0.2,0,0.4,0,0.6-0.1c0.1-0.1,0.3-0.2,0.3-0.3c0.1-0.2,0.1-0.4,0.1-0.6V16.2c0-0.2,0-0.4-0.1-0.6
	c-0.1-0.1-0.2-0.3-0.3-0.3C52.6,15.2,52.4,15.2,52.2,15.2"/>
<path class="st0" d="M26.6,15.2h-5.9c-0.3,0-0.5,0.1-0.8,0.2c-0.2,0.2-0.3,0.5-0.2,0.8v19.2h-5.9V16.2c0-0.3-0.1-0.6-0.2-0.8
	c-0.2-0.2-0.5-0.3-0.8-0.2H6.9c-0.3,0-0.6,0.1-0.8,0.2c-0.2,0.2-0.3,0.5-0.2,0.8v19.2H0V15.2c-0.1-1.4,0.3-2.8,1.2-3.9
	c1.1-0.9,2.5-1.3,3.9-1.2h7.5c2.2,0,3.6,0.8,4.2,2.4c0.5-1.6,1.9-2.4,4.2-2.4h7.5c1.4-0.1,2.8,0.3,3.9,1.2c0.9,1.1,1.3,2.5,1.2,3.9
	v20.3h-5.9V16.2c0-0.2,0-0.4-0.1-0.6c-0.1-0.1-0.2-0.3-0.3-0.3C27,15.2,26.8,15.2,26.6,15.2"/>
</svg>
